<svg width="128" height="128" viewBox="0 0 128 128" fill="none" xmlns="http://www.w3.org/2000/svg">
<g clip-path="url(#clip0_18_24)">
<g filter="url(#filter0_d_18_24)">
<path d="M110.4 29.625H64L52.4 18H17.6C11.22 18 6.058 23.2312 6.058 29.625L6 99.375C6 105.769 11.22 111 17.6 111H110.4C116.78 111 122 105.769 122 99.375V41.25C122 34.8562 116.78 29.625 110.4 29.625ZM110.4 99.375H17.6V41.25H110.4V99.375Z" fill="#FFDF0D"/>
</g>
<path d="M40.9102 53.7875C41.4665 53.2625 42.1744 53 43.0341 53C43.8937 53 44.6017 53.2625 45.1579 53.7875L58.2043 66.1007H78.6084L72.9195 60.7315C72.3633 60.2066 72.0851 59.5508 72.0851 58.7643C72.0851 57.9759 72.3885 57.2953 72.9954 56.7226C73.6022 56.1499 74.3233 55.8635 75.1586 55.8635C75.992 55.8635 76.7121 56.1499 77.3189 56.7226L88.1656 66.9597C88.469 67.2461 88.6845 67.5563 88.8119 67.8904C88.9373 68.2245 89 68.5824 89 68.9642C89 69.346 88.9373 69.704 88.8119 70.038C88.6845 70.3721 88.469 70.6823 88.1656 70.9687L77.1672 81.349C76.6109 81.874 75.9161 82.1489 75.0828 82.1737C74.2474 82.1966 73.5263 81.9217 72.9195 81.349C72.3127 80.7763 72.0093 80.0967 72.0093 79.3102C72.0093 78.5217 72.3127 77.8412 72.9195 77.2685L78.6084 71.8277H55.7771L40.8344 57.7248C40.2781 57.1998 40 56.5556 40 55.7919C40 55.0283 40.3034 54.3602 40.9102 53.7875ZM40.8344 80.132L48.3437 72.9732L52.6672 77.0537L45.0062 84.2125C44.4499 84.7375 43.7673 85 42.9582 85C42.1491 85 41.4412 84.7136 40.8344 84.1409C40.2781 83.616 40 82.9602 40 82.1737C40 81.3853 40.2781 80.7047 40.8344 80.132Z" fill="black"/>
</g>
<defs>
<filter id="filter0_d_18_24" x="3" y="16" width="122" height="99" filterUnits="userSpaceOnUse" color-interpolation-filters="sRGB">
<feFlood flood-opacity="0" result="BackgroundImageFix"/>
<feColorMatrix in="SourceAlpha" type="matrix" values="0 0 0 0 0 0 0 0 0 0 0 0 0 0 0 0 0 0 127 0" result="hardAlpha"/>
<feOffset dy="1"/>
<feGaussianBlur stdDeviation="1.5"/>
<feComposite in2="hardAlpha" operator="out"/>
<feColorMatrix type="matrix" values="0 0 0 0 0 0 0 0 0 0 0 0 0 0 0 0 0 0 0.25 0"/>
<feBlend mode="normal" in2="BackgroundImageFix" result="effect1_dropShadow_18_24"/>
<feBlend mode="normal" in="SourceGraphic" in2="effect1_dropShadow_18_24" result="shape"/>
</filter>
<clipPath id="clip0_18_24">
<rect width="128" height="128" fill="white"/>
</clipPath>
</defs>
</svg>
